<svg width="1308" height="1254" viewBox="0 0 1308 1254" fill="none" xmlns="http://www.w3.org/2000/svg">
<path fill-rule="evenodd" clip-rule="evenodd" d="M217.771 47.4205C201.335 40.6775 179.425 48.4979 188.565 66.3236C198.356 85.4124 234.554 85.6482 254.998 85.2698C252.952 85.1811 246.363 67.6765 244.107 65.0314C237.454 57.2284 227.875 51.5734 217.771 47.4205ZM407.141 389.662C407.478 389.937 411.287 392.595 407.141 389.662ZM201.938 133.759C192.32 139.842 191.861 150.583 199.718 157.852C209.074 166.507 226.157 166.192 238.908 165.348C244.677 164.966 275.477 162.926 268.176 158.756C268.738 158.931 269.911 159.357 271.166 159.936C271.841 161.978 272.55 164.013 273.29 166.039C273.108 166.126 272.954 166.22 272.761 166.307C272.97 166.231 273.117 166.149 273.302 166.072C280.709 186.319 291.252 205.598 305.057 223.634C299.892 221.951 294.542 220.677 289.116 220.11C273.048 218.429 239.246 228.76 257.219 246.461C274.453 263.43 301.284 245.225 320.843 242.715C339.814 264.622 360.731 285.616 382.652 305.909C381.309 306.257 380.13 306.982 379.454 308.111C370.66 304.42 361.497 299.139 353.358 297.71C341.613 295.65 317.531 294.4 308.654 303.098C297.737 313.793 309.44 322.48 322.338 324.531C341.042 327.506 365.526 319.945 383.523 314.836C385.581 315.138 387.829 314.639 389.171 313.277C389.569 313.169 389.966 313.063 390.353 312.96C412.552 333.154 435.6 352.681 458.508 371.781C458.264 371.77 458.021 371.758 457.766 371.747C451.791 368.504 445.381 365.844 438.433 364.45C422.362 361.209 403.452 361.193 390.409 370.815C377.418 380.395 372.815 397.15 386.256 407.908C413.159 429.441 452.797 380.343 466.367 378.293C489.647 397.499 514.262 415.443 539.265 433.025C536.425 432.31 533.513 431.784 530.504 431.548C505.986 429.606 448.44 454.474 478.528 478.942C504.749 500.264 535.097 459.225 556.227 444.873C579.787 461.26 603.476 477.535 626.5 494.444C613.943 491.686 601.807 491.279 588.346 494.645C574.417 498.132 551.941 506.834 560.746 522.394C569.702 538.217 596.692 531.017 610.75 525.993C618.417 523.253 633.789 514.006 647.286 510.11C684.026 538.809 715.849 570.418 739.94 607.654C754.981 630.903 766.395 655.742 774.428 681.271C779.556 697.566 789.66 724.934 787.637 746.142C797.279 703.69 779.846 652.704 761.066 614.759C743.799 579.867 717.957 549.236 687.689 521.664C695.285 502.762 759.218 475.499 720.998 457.938C700.702 448.653 679.914 464.06 675.478 480.378C672.431 491.591 677.073 505.68 682.001 516.563C672.479 508.159 662.58 500.024 652.38 492.159C638.284 481.29 623.85 470.736 609.279 460.315C633.291 441.65 656.016 388.293 623.821 379.567C576.278 366.718 599.17 439.499 602.486 453.14C603.428 453.186 604.162 452.95 604.702 452.445C604.435 453.695 604.124 455.031 603.748 456.377C575.858 436.536 547.555 417.085 520.184 396.769C522.65 395.261 526.57 389.498 529.651 386.431C536.604 379.517 543.258 372.295 548.12 364.206C555.8 351.424 563.208 331.036 542.848 323.518C520.706 315.327 510.184 338.386 510.03 352.142C509.925 361.656 513.056 370.694 514.687 380.019C515.197 382.927 513.234 396.037 518.022 390.397C517.797 392.477 517.764 393.983 517.876 395.05C512.962 391.385 508.086 387.679 503.241 383.947C503.465 383.476 503.632 382.962 503.669 382.367C503.929 378.265 498.941 376.686 495.443 377.887C489.05 372.86 482.719 367.77 476.501 362.579C463.322 351.581 449.953 340.269 436.675 328.716C439.556 326.668 438.41 323.833 441.104 321.659C443.794 319.49 449.091 318.291 452.254 316.276C460.209 311.206 466.805 303.82 471.576 296.551C479.452 284.54 489.631 259.343 466.622 253.619C442.906 247.709 430.868 271.963 429.343 287.127C429.046 290.065 431.705 316.535 433.74 326.147C409.172 304.676 385.009 282.4 363.117 259.736C369.755 259.685 388.573 248.433 392.378 245.363C401.66 237.874 416.417 221.327 400.143 212.57C385.672 204.804 367.836 216.053 361.648 226.986C360.631 228.786 357.045 245.542 356.765 253.059C347.704 243.449 339.061 233.781 331.019 224.082C325.656 217.635 320.645 211.016 315.956 204.257C317.085 203.728 318.147 202.805 319.15 201.657C343.284 198.268 374.053 167.113 345.705 156.274C332.209 151.12 317.572 161.759 310.96 170.47C309.606 172.252 307.412 181.212 305.626 188.279C292.137 165.887 281.828 142.181 273.983 117.876C276.083 117.444 277.863 116.116 278.097 113.832C289.814 108.306 299.067 103.704 307.246 93.076C312.328 86.4749 321.479 71.3932 306.548 67.7293C287.118 62.962 274.913 87.5165 273.323 99.6109C273.138 101.015 273.145 105.098 273.209 108.84C272.534 108.763 271.852 108.772 271.183 108.87C266.721 93.8195 263.159 78.5756 260.326 63.306C270.931 60.4819 272.765 14.4002 265.704 7.83872C249.921 -6.85324 238.786 14.37 239.628 25.5869C240.624 38.8127 247.867 50.8438 256.493 61.5212C257.418 62.6519 257.154 62.5971 257.394 61.0219C257.526 61.8005 257.841 62.375 258.308 62.7912C257.863 69.7532 256.995 76.8808 257.412 83.0413C258.606 100.683 261.09 118.428 264.697 135.843C265.574 140.079 266.578 144.28 267.705 148.444C259.181 142.436 247.688 137.097 243.191 135.428C231.519 131.1 213.531 126.426 201.938 133.759ZM789.006 746.201C788.465 752.354 787.123 757.987 784.617 762.632C786.496 757.343 787.938 751.846 789.006 746.201Z" fill="#F0F0F0"/>
<g opacity="0.7">
<path fill-rule="evenodd" clip-rule="evenodd" d="M537.482 464.107C583.129 462.147 639.581 484.192 644.451 525.245C647.989 555.073 646.893 584.816 652.368 614.599C656.746 638.403 666.005 661.253 678.632 682.935C690.775 703.785 715.962 721.534 722.513 743.808C726.689 758.001 724.351 777.966 718.593 791.848C711.591 808.728 715.313 807.394 729.266 821.557C756.607 849.312 781.226 877.774 798.636 910.923C823.714 958.67 840.155 1014.48 830.848 1066.75C829.664 1073.38 828.26 1097.2 817.214 1098.87C804.877 1100.73 810.645 1087.11 811.304 1082.7C815.502 1054.63 819.231 1030.09 814.168 1001.57C794.63 891.555 699.237 819.068 637.123 725.693C633.708 720.878 626.5 709.411 621.488 701.847C613.575 689.904 605.62 667.179 594.908 658.323C574.733 641.64 593.281 675.179 597.212 681.582C602.182 689.681 607.65 698.289 612.743 705.386C636.048 738.282 662.06 774.191 686.128 808.101C582.034 827.724 508.724 724.184 480.79 656.112C457.774 600.029 430.237 468.905 537.482 464.107Z" fill="#8C81CA"/>
<path fill-rule="evenodd" clip-rule="evenodd" d="M1149.29 359.958C1072.98 364.967 1023.99 406.627 1001.19 464.897C988.898 496.298 987.489 528.557 980.659 560.827C970.385 609.379 948.278 646.172 905.074 680.761C891.692 691.474 881.831 702.473 874.821 714.24C860.905 725.989 848.792 739.285 839.892 755.54C828.524 776.299 825.307 801.205 838.433 821.902C841.962 827.465 850.766 838.634 859.89 843.709C825.729 903.904 806.946 969.83 809.063 1035.67C810.343 1075.42 812.688 1115.18 815.424 1154.88C816.16 1165.54 820.356 1183.14 826.657 1165.26C832.424 1148.91 825.192 1123.24 824.523 1106.16C821.267 1022.95 818.483 947.287 859.885 869.542C864.226 861.394 868.829 853.31 873.623 845.292C873.905 845.157 874.166 844.994 874.43 844.836C874.613 844.952 874.779 845.078 874.962 845.192C875.268 844.74 875.687 844.202 876.177 843.602C877.552 842.428 878.752 840.944 879.894 839.289C883.566 835.078 887.722 830.132 887.745 827.423C887.745 827.402 887.731 827.37 887.731 827.349C913.361 792.733 942.716 760.025 972.702 727.957C972.477 728.19 1005.23 691.297 1000.16 711.7C997.722 721.532 973.633 740.256 963.904 750.67C942.382 773.84 917.109 803.197 896.107 831.585C893.281 832.929 889.288 839.526 886.401 844.44C884.806 846.929 883.319 849.44 881.857 851.627C956.272 871.969 1014.16 830.993 1053.63 783.334C1053.68 783.278 1053.72 783.22 1053.77 783.164C1065.78 769.995 1078.08 756.918 1093.46 746.509C1119.1 729.138 1146.57 726.073 1176.81 717.524C1259.27 694.213 1294.33 605.79 1305.47 540.18C1318.03 466.161 1256.58 352.659 1149.29 359.958Z" fill="#B2A4FF"/>
<path fill-rule="evenodd" clip-rule="evenodd" d="M998.555 152.675C920.237 220.115 882.4 313.655 852.44 401.592C818.978 499.809 796.876 599.542 796.027 701.657C795.471 768.748 793.265 836.257 797.998 903.27C799.677 927.069 802.545 950.91 807.104 974.454C807.48 976.388 817.68 1028.96 827.44 1016.71C832.991 1009.74 816.984 962.175 815.775 954.253C808.971 909.63 807.39 864.679 807.722 819.734C808.267 745.733 805.63 672.111 814.695 598.383C816.047 587.375 817.116 575.813 820.277 565.044C823.632 553.595 819.358 558.593 830.288 554.06C840.908 549.654 854.032 550.283 865.051 544.756C908.759 522.827 931.118 466.501 948.52 429.543C968.424 387.279 980.521 342.212 990.183 297.736C997.277 265.058 1002.35 232.579 1005.22 199.48C1006.12 189.049 1006.18 178.14 1008.66 167.883C1009.32 165.116 1012.67 160.222 1012.55 157.772C1012.29 152.586 1008.51 149.536 1008.2 145.179C1004.92 147.62 1001.7 150.12 998.555 152.675Z" fill="#B2A4FF"/>
<path fill-rule="evenodd" clip-rule="evenodd" d="M571.512 1051.2C571.512 1162.73 680.789 1253.15 815.589 1253.15C950.388 1253.15 1059.66 1162.73 1059.66 1051.2" fill="#B2A4FF"/>
<path fill-rule="evenodd" clip-rule="evenodd" d="M835.173 1051.85H822.276C823.17 1038.46 824.352 1025.1 827.057 1011.86C837.404 961.225 869.753 886.86 940.704 878.642C943.321 878.336 952.95 878.284 964.613 878.85C970.14 876.295 976.332 874.749 982.856 874.394C1043.26 870.709 1110.72 911.03 1139.86 952.99C1163.35 986.821 1159.4 1031.25 1144.89 1067.19C1135.17 1091.25 1113.97 1125.56 1078.61 1125.89C1034.36 1126.31 1032.23 1081.07 1031.38 1054.62C1030.24 1019.46 1024.87 988.832 991.381 964.865C983.577 959.282 975.046 954.37 967.163 948.864C954.818 940.246 941.177 931.422 939.586 917.165C937.391 897.496 950.811 893.956 971.3 897.61C974.793 898.232 1009.98 911.295 1004.77 900.97C1003.18 897.816 997.368 895.317 990.036 893.444C971.064 891.737 948.438 889.757 941.931 890.94C871.732 903.682 844.4 984.135 837.142 1035.25C836.358 1040.77 835.725 1046.3 835.173 1051.85Z" fill="#8C81CA"/>
</g>
<g opacity="0.5">
<path fill-rule="evenodd" clip-rule="evenodd" d="M300.972 543.943C308.069 533.824 321.238 508.125 331.227 504.509C337.66 502.18 335.784 526.271 335.864 530.864C336.173 548.636 334.443 566.296 332.307 583.918C328.457 615.701 315.87 644.005 298.607 671.055C289.723 684.974 279.303 699.062 264.871 707.747C258.228 711.746 250.235 712.416 243.675 715.862C236.034 719.873 240.195 716.63 236.752 724.592C231.97 735.646 230.441 749.907 228.228 761.702C218.07 815.847 193.476 1102.07 197.74 1157.15C198.118 1162.03 191.312 1163.2 190.972 1157.24C189.166 1125.64 204.794 906.815 212.679 835.254C220.564 763.693 228.543 700.472 236.544 675.714C246.25 645.677 263.78 609.556 278.372 581.545C285.15 568.532 292.538 555.968 300.972 543.943Z" fill="#8C81CA"/>
<path fill-rule="evenodd" clip-rule="evenodd" d="M353.646 894.919C372.112 881.362 392.101 906.948 375.391 920.508C366.153 928.003 356.495 925.336 351.058 919.091C347.529 923.393 344.226 927.891 341.051 931.691C331.38 943.269 322.24 955.123 313.504 967.254C295.357 992.455 279.806 1019.08 263.545 1045.22C247.498 1071.01 231.58 1096.94 217.035 1123.39C204.714 1145.8 188.291 1172.17 184.073 1196.73C190.473 1144.63 214.76 1094.55 243.682 1048.62C272.368 1003.06 305.289 953.307 349.706 917.355C345.185 910.707 345.06 901.218 353.646 894.919Z" fill="#C3B8FF"/>
<path fill-rule="evenodd" clip-rule="evenodd" d="M3.23089 767.846C13.5647 769.867 30.45 793.244 38.9682 802.151C49.0914 812.735 58.2757 824.016 66.933 835.837C85.5703 861.279 102.238 888.329 116.411 916.538C139.518 962.525 158.029 1009.73 171.463 1059.81C179.687 1090.46 185.011 1122.23 188.167 1153.78C188.763 1159.73 195.001 1205.61 186.012 1206.84C177.927 1207.95 180.424 1172.01 180.034 1167.12C175.626 1111.96 162.418 1058.28 144.047 1006.29C140.046 994.962 136.328 981.089 129.929 970.897C125.32 963.555 129.895 966.115 121.797 963.337C114.843 960.95 106.919 961.533 99.7983 958.611C84.3283 952.267 71.9413 939.951 61.0832 927.563C39.9822 903.487 23.2607 877.441 14.5445 846.592C9.70936 829.487 5.2661 812.282 2.80037 794.648C2.16252 790.091 -3.42504 766.545 3.23089 767.846Z" fill="#8C81CA"/>
<path fill-rule="evenodd" clip-rule="evenodd" d="M44.0109 378.905C82.9363 446.411 114.924 520.565 135.578 595.672C148.092 641.178 156.844 687.874 165.539 734.233C179.002 806.014 191.736 877.789 195.359 950.845C199.003 1024.32 206.21 1109.07 182.149 1179.85C194.167 1107.99 182.725 1031.51 180.699 959.213C179.731 924.698 176.925 890.521 173.245 856.209C169.674 822.923 163.839 789.797 158.405 756.773C155.759 740.69 152.979 724.631 150.149 708.581C149.304 703.793 148.947 689.583 145.91 686.312C142.852 683.019 127.254 681.677 122.357 679.261C112.495 674.395 103.219 667.482 95.0101 660.179C79.2726 646.178 65.5817 627.884 54.7758 609.851C29.7737 568.124 19.7779 517.202 20.2831 468.877C20.3802 459.495 35.4694 358.46 29.4093 357.069C29.7742 356.642 30.1193 356.201 30.4447 355.742C35.0327 363.423 39.5349 371.157 44.0109 378.905Z" fill="#B2A4FF"/>
<path fill-rule="evenodd" clip-rule="evenodd" d="M464.144 622.372C464.744 621.506 468.653 615.481 466.685 615.866C470.693 615.082 461.172 622.511 471.159 617.953C466.417 622.431 469.154 628.248 469.217 634.275C469.32 644.06 467.683 653.765 465.84 663.34C462.928 678.475 458.59 693.191 452.293 707.269C438.568 737.947 415.264 767.48 387.597 786.66C373.939 796.13 360.553 799.354 344.975 803.714C335.136 806.468 334.356 811.558 329.133 821.106C318.26 840.992 307.58 860.807 297.991 881.365C286.54 905.912 275.425 930.487 264.94 955.467C229.617 1039.61 200.868 1126.78 185.77 1217C185.4 1163.84 197.699 1109.08 213.212 1058.41C224.513 1021.49 239.224 985.897 254.915 950.667C258.718 942.132 264.48 931.154 266.094 921.731C267.225 915.129 263.768 908.78 262.186 901.825C256.016 874.742 256.457 844.4 261.875 817.172C267.849 787.148 285.126 773.213 314.351 768.961C325.039 767.405 338.624 767.975 348.425 763.418C359.102 758.455 363.507 742.143 369.579 731.672C385.887 703.544 405.263 676.567 427.513 652.867C433.674 646.304 440.299 640.249 447.328 634.637C451.76 631.096 461.123 626.734 464.144 622.372Z" fill="#B2A4FF"/>
<path fill-rule="evenodd" clip-rule="evenodd" d="M136.436 1159.58H240.153C244.816 1159.58 248.597 1163.36 248.597 1168.03C248.597 1168.44 248.567 1168.85 248.507 1169.26L240.49 1223.62C238.046 1240.19 223.827 1252.46 207.077 1252.46H169.512C152.762 1252.46 138.543 1240.19 136.099 1223.62L128.082 1169.26C127.402 1164.64 130.59 1160.35 135.204 1159.67C135.612 1159.61 136.023 1159.58 136.436 1159.58Z" fill="#C3B8FF"/>
</g>
<path fill-rule="evenodd" clip-rule="evenodd" d="M442.622 225.884C451.268 207.699 454.943 187.268 448.069 167.32C428.263 109.844 350.174 144.579 342.234 178.394C334.295 212.209 356.274 286.698 378.189 286.489C386.929 286.406 402.962 276.577 417.824 261.144L427.789 342.835L493.482 325.233L442.622 225.884Z" fill="#FFECD3"/>
<path fill-rule="evenodd" clip-rule="evenodd" d="M418.782 227.857C431.118 241.311 445.54 250.067 456.795 247.051C478.175 241.323 485.717 208.666 477.482 177.933C477.193 176.853 476.884 175.786 476.557 174.733C503.331 184.193 528.957 210.113 558.882 202.095C599.594 191.186 593.759 104.738 536.879 119.979C498.196 130.344 480.679 141.082 466.516 153.816C460.838 145.565 453.853 139.221 446.388 135.483C444.499 134.239 441.856 133.272 438.599 132.592C436.587 132.103 434.562 131.807 432.539 131.719C421.676 130.735 406.664 132.01 390.514 135.738C387.498 136.434 384.555 137.19 381.703 137.996C377.617 122.931 362.108 114.001 347.02 118.044C331.903 122.095 322.932 137.633 326.982 152.751C330.9 167.37 345.561 176.242 360.195 173.146C369.131 173.481 380.236 172.51 392.207 170.147C392.216 174.747 392.902 179.791 394.379 185.303C395.683 190.17 397.604 195.188 399.997 200.164C401.735 196.449 404.616 193.557 408.077 192.63C417.76 190.035 426.635 196.195 428.901 204.652C431.777 215.386 427.661 224.812 418.782 227.857Z" fill="#615A8A"/>
<path fill-rule="evenodd" clip-rule="evenodd" d="M577.275 575.742L473.472 933.439L424.649 1202H375.644L424.561 575.742H577.275Z" fill="#FFECD3"/>
<path fill-rule="evenodd" clip-rule="evenodd" d="M623.925 575.742C616.682 761.564 619.539 862.916 621.16 879.798C622.781 896.681 631.984 1009.75 694.696 1207.67H643.727C560.676 1017.8 531.683 904.731 522.158 879.798C512.632 854.866 484.5 753.514 443.427 575.742H623.925Z" fill="#FFECD3"/>
<path fill-rule="evenodd" clip-rule="evenodd" d="M579.504 575.742C552.503 698.826 505.803 895.3 439.404 1165.16H367.73C362.436 888.175 384.956 705.87 423.956 575.742H579.504Z" fill="#EACAA1"/>
<path fill-rule="evenodd" clip-rule="evenodd" d="M624.287 575.742C617.194 761.564 635.577 944.633 692.523 1168.06H616.05C532.846 981.02 473.211 798.854 432.454 575.742H624.287Z" fill="#F7D5A9"/>
<path fill-rule="evenodd" clip-rule="evenodd" d="M701.961 1244.51L699.148 1199.17C682.683 1203.98 662.059 1202.1 637.278 1193.5C610.632 1212.38 577.088 1225.26 536.647 1232.17C533.561 1232.69 531.487 1235.62 532.014 1238.71C532.048 1238.91 532.092 1239.1 532.148 1239.3L536.036 1253.01H637.278H696.336L701.961 1244.51Z" fill="#615A8A"/>
<path fill-rule="evenodd" clip-rule="evenodd" d="M435.588 1244.51L432.775 1199.17C416.31 1203.98 395.686 1202.1 370.905 1193.5C344.259 1212.38 310.715 1225.26 270.274 1232.17C267.188 1232.69 265.114 1235.62 265.64 1238.71C265.674 1238.91 265.719 1239.1 265.775 1239.3L269.663 1253.01H370.905H429.963L435.588 1244.51Z" fill="#615A8A"/>
<path fill-rule="evenodd" clip-rule="evenodd" d="M374.516 416.438L268.296 380.465C248.816 364.177 230.325 352.12 212.825 344.293C207.696 343.141 199.129 343.407 209.387 355.896C219.645 368.385 229.873 381.983 226.646 386.957C223.419 391.931 212.442 387.713 208.945 395.648C206.614 400.938 224.888 405.424 263.768 409.104L345.515 461.138L374.516 416.438ZM230.7 487.95L184.03 472.079C174.054 450.414 164.902 440.243 156.574 441.564C149.672 439.721 165.842 466.468 153.312 466.111C140.781 465.753 107.399 449.008 103.099 454.361C96.7389 462.281 107.017 481.343 116.696 490.02C134.787 506.237 148.152 510.517 179.868 513.615C196.45 515.236 215.097 521.056 235.806 531.076L230.7 487.95Z" fill="#FFECD3"/>
<path fill-rule="evenodd" clip-rule="evenodd" d="M419.606 396.302C385.615 401.926 339.107 402.737 285.429 380.606L273.925 426.228C313.051 453.403 364.661 472.299 405.398 463.931C437.501 457.336 447.109 415.404 419.606 396.302Z" fill="#DF9E9E"/>
<path fill-rule="evenodd" clip-rule="evenodd" d="M385.877 472.16C351.442 487.494 289.172 487.551 199.068 472.331C185.709 519.547 181.457 552.278 186.311 570.526C265.742 595.694 331.067 601.641 382.623 593.703C386.364 624.465 395.186 652.808 412.319 677.106C447.54 727.059 588.644 650.165 640.83 651.201C654.327 543.06 585.909 512.144 574.287 446.521C561.56 374.657 484.343 274.204 475.852 275.701L398.419 289.354C403.825 344.998 392.987 409.284 385.877 472.16Z" fill="#FFB4B4"/>
</svg>
