<svg width="1308" height="1254" viewBox="0 0 1308 1254" fill="none" xmlns="http://www.w3.org/2000/svg">
<path fill-rule="evenodd" clip-rule="evenodd" d="M225.771 47.4197C209.335 40.6767 187.425 48.4971 196.565 66.3229C206.356 85.4116 242.554 85.6474 262.998 85.2691C260.952 85.1804 254.363 67.6757 252.107 65.0306C245.455 57.2277 235.876 51.5727 225.771 47.4197ZM415.141 389.661C415.478 389.936 419.287 392.594 415.141 389.661ZM209.938 133.758C200.32 139.842 199.861 150.582 207.718 157.852C217.074 166.506 234.157 166.191 246.909 165.348C252.677 164.966 283.477 162.925 276.176 158.755C276.738 158.931 277.911 159.357 279.166 159.935C279.841 161.977 280.551 164.012 281.29 166.038C281.109 166.126 280.954 166.22 280.761 166.307C280.97 166.231 281.117 166.149 281.302 166.071C288.709 186.319 299.252 205.597 313.057 223.633C307.892 221.951 302.542 220.677 297.116 220.11C281.048 218.428 247.246 228.759 265.219 246.46C282.453 263.43 309.284 245.224 328.843 242.714C347.814 264.621 368.731 285.615 390.652 305.908C389.309 306.256 388.13 306.982 387.455 308.111C378.66 304.419 369.497 299.138 361.358 297.709C349.613 295.649 325.531 294.4 316.654 303.097C305.737 313.792 317.44 322.479 330.339 324.53C349.042 327.505 373.526 319.944 391.523 314.836C393.581 315.137 395.829 314.639 397.171 313.276C397.569 313.168 397.967 313.062 398.354 312.959C420.552 333.153 443.601 352.681 466.508 371.78C466.265 371.769 466.021 371.757 465.766 371.746C459.791 368.503 453.381 365.843 446.434 364.449C430.362 361.208 411.452 361.192 398.41 370.814C385.418 380.394 380.816 397.149 394.256 407.907C421.159 429.441 460.797 380.342 474.367 378.293C497.647 397.498 522.262 415.442 547.265 433.024C544.425 432.309 541.513 431.783 538.504 431.547C513.986 429.605 456.44 454.474 486.528 478.941C512.749 500.263 543.097 459.225 564.227 444.872C587.788 461.26 611.476 477.534 634.5 494.444C621.943 491.685 609.807 491.279 596.346 494.644C582.417 498.131 559.941 506.833 568.746 522.393C577.702 538.217 604.692 531.016 618.75 525.992C626.417 523.253 641.789 514.005 655.286 510.11C692.026 538.808 723.849 570.417 747.94 607.653C762.981 630.902 774.395 655.741 782.428 681.27C787.556 697.565 797.66 724.933 795.637 746.141C805.279 703.689 787.846 652.703 769.066 614.758C751.799 579.866 725.958 549.235 695.689 521.663C703.285 502.761 767.219 475.498 728.998 457.937C708.702 448.652 687.915 464.059 683.478 480.377C680.431 491.59 685.073 505.679 690.001 516.563C680.479 508.158 670.58 500.023 660.38 492.159C646.284 481.289 631.851 470.735 617.279 460.314C641.291 441.65 664.016 388.293 631.821 379.566C584.278 366.717 607.17 439.498 610.486 453.139C611.428 453.185 612.162 452.949 612.702 452.445C612.435 453.694 612.124 455.03 611.748 456.377C583.858 436.535 555.555 417.084 528.184 396.768C530.65 395.26 534.57 389.498 537.651 386.431C544.605 379.517 551.258 372.294 556.12 364.206C563.8 351.424 571.208 331.036 550.848 323.517C528.706 315.326 518.184 338.385 518.03 352.141C517.925 361.655 521.056 370.693 522.688 380.018C523.197 382.926 521.234 396.036 526.023 390.397C525.797 392.476 525.764 393.982 525.876 395.05C520.962 391.384 516.086 387.679 511.241 383.947C511.465 383.475 511.632 382.962 511.669 382.366C511.929 378.265 506.941 376.685 503.444 377.886C497.05 372.859 490.719 367.769 484.501 362.578C471.323 351.58 457.953 340.268 444.675 328.715C447.556 326.667 446.41 323.832 449.104 321.658C451.794 319.49 457.091 318.29 460.254 316.276C468.209 311.206 474.806 303.819 479.576 296.55C487.452 284.539 497.631 259.343 474.622 253.618C450.906 247.708 438.868 271.962 437.343 287.126C437.046 290.064 439.705 316.534 441.74 326.146C417.173 304.676 393.009 282.399 371.117 259.735C377.755 259.685 396.573 248.433 400.378 245.362C409.661 237.874 424.417 221.326 408.143 212.57C393.672 204.803 375.836 216.052 369.648 226.985C368.631 228.785 365.045 245.541 364.765 253.059C355.704 243.448 347.061 233.78 339.019 224.082C333.657 217.634 328.645 211.015 323.956 204.256C325.085 203.727 326.147 202.804 327.15 201.656C351.284 198.267 382.053 167.113 353.705 156.273C340.209 151.119 325.572 161.758 318.96 170.469C317.606 172.251 315.412 181.211 313.626 188.278C300.137 165.886 289.828 142.181 281.983 117.875C284.084 117.443 285.863 116.116 286.097 113.832C297.814 108.305 307.067 103.703 315.247 93.0753C320.328 86.4742 329.479 71.3925 314.548 67.7285C295.118 62.9613 282.913 87.5158 281.323 99.6102C281.138 101.014 281.145 105.097 281.209 108.839C280.534 108.763 279.852 108.771 279.184 108.869C274.721 93.8188 271.159 78.5749 268.326 63.3052C278.931 60.4811 280.765 14.3995 273.704 7.83799C257.921 -6.85397 246.786 14.3693 247.628 25.5862C248.624 38.812 255.867 50.8431 264.493 61.5204C265.418 62.6512 265.154 62.5963 265.394 61.0212C265.526 61.7997 265.841 62.3743 266.308 62.7905C265.863 69.7524 264.995 76.8801 265.412 83.0406C266.606 100.683 269.09 118.427 272.697 135.842C273.574 140.078 274.579 144.279 275.705 148.443C267.181 142.435 255.688 137.097 251.191 135.427C239.519 131.099 221.531 126.425 209.938 133.758ZM797.006 746.201C796.465 752.353 795.123 757.986 792.617 762.631C794.496 757.342 795.938 751.846 797.006 746.201Z" fill="#B1DDDE" fill-opacity="0.7"/>
<g opacity="0.7">
<path fill-rule="evenodd" clip-rule="evenodd" d="M537.482 464.107C583.129 462.147 639.581 484.192 644.451 525.245C647.989 555.073 646.893 584.816 652.368 614.599C656.746 638.403 666.005 661.253 678.632 682.935C690.775 703.785 715.962 721.534 722.513 743.808C726.689 758.001 724.351 777.966 718.593 791.848C711.591 808.728 715.313 807.394 729.266 821.557C756.607 849.312 781.226 877.774 798.636 910.923C823.714 958.67 840.155 1014.48 830.848 1066.75C829.664 1073.38 828.26 1097.2 817.214 1098.87C804.877 1100.73 810.645 1087.11 811.304 1082.7C815.502 1054.63 819.231 1030.09 814.168 1001.57C794.63 891.555 699.237 819.068 637.123 725.693C633.708 720.878 626.5 709.411 621.488 701.847C613.575 689.904 605.62 667.179 594.908 658.323C574.733 641.64 593.281 675.179 597.212 681.582C602.182 689.681 607.65 698.289 612.743 705.386C636.048 738.282 662.06 774.191 686.128 808.101C582.034 827.724 508.724 724.184 480.79 656.112C457.774 600.029 430.237 468.905 537.482 464.107Z" fill="#6E9E9F"/>
<path fill-rule="evenodd" clip-rule="evenodd" d="M1149.29 359.958C1072.98 364.967 1023.99 406.627 1001.19 464.897C988.898 496.298 987.489 528.557 980.659 560.827C970.385 609.379 948.278 646.172 905.074 680.761C891.692 691.474 881.831 702.473 874.821 714.24C860.905 725.989 848.792 739.285 839.892 755.54C828.524 776.299 825.307 801.205 838.433 821.902C841.962 827.465 850.766 838.634 859.89 843.709C825.729 903.904 806.946 969.83 809.063 1035.67C810.343 1075.42 812.688 1115.18 815.424 1154.88C816.16 1165.54 820.356 1183.14 826.657 1165.26C832.424 1148.91 825.192 1123.24 824.523 1106.16C821.267 1022.95 818.483 947.287 859.885 869.542C864.226 861.394 868.829 853.31 873.623 845.292C873.905 845.157 874.166 844.994 874.43 844.836C874.613 844.952 874.779 845.078 874.962 845.192C875.268 844.74 875.687 844.202 876.177 843.602C877.552 842.428 878.752 840.944 879.894 839.289C883.566 835.078 887.722 830.132 887.744 827.423C887.744 827.402 887.73 827.37 887.73 827.349C913.36 792.733 942.716 760.025 972.702 727.957C972.477 728.19 1005.23 691.297 1000.16 711.7C997.722 721.532 973.633 740.256 963.904 750.67C942.382 773.84 917.109 803.197 896.107 831.585C893.281 832.929 889.288 839.526 886.4 844.44C884.806 846.929 883.319 849.44 881.856 851.627C956.272 871.969 1014.16 830.993 1053.63 783.334C1053.68 783.278 1053.72 783.22 1053.77 783.164C1065.78 769.995 1078.08 756.918 1093.46 746.509C1119.1 729.138 1146.57 726.073 1176.81 717.524C1259.27 694.213 1294.33 605.79 1305.47 540.18C1318.03 466.161 1256.58 352.659 1149.29 359.958Z" fill="#B1D7D8"/>
<path fill-rule="evenodd" clip-rule="evenodd" d="M998.555 152.675C920.237 220.115 882.4 313.655 852.439 401.592C818.978 499.809 796.876 599.542 796.027 701.657C795.471 768.748 793.265 836.257 797.998 903.27C799.677 927.069 802.545 950.91 807.104 974.454C807.479 976.388 817.68 1028.96 827.44 1016.71C832.991 1009.74 816.984 962.175 815.774 954.253C808.971 909.63 807.39 864.679 807.721 819.734C808.267 745.733 805.63 672.111 814.695 598.383C816.047 587.375 817.116 575.813 820.276 565.044C823.632 553.595 819.358 558.593 830.288 554.06C840.908 549.654 854.032 550.283 865.051 544.756C908.759 522.827 931.118 466.501 948.52 429.543C968.424 387.279 980.521 342.212 990.183 297.736C997.277 265.058 1002.35 232.579 1005.22 199.48C1006.12 189.049 1006.18 178.14 1008.66 167.883C1009.32 165.116 1012.67 160.222 1012.55 157.772C1012.29 152.586 1008.51 149.536 1008.2 145.179C1004.92 147.62 1001.7 150.12 998.555 152.675Z" fill="#B1D7D8"/>
<path fill-rule="evenodd" clip-rule="evenodd" d="M571.512 1051.2C571.512 1162.73 680.789 1253.15 815.589 1253.15C950.388 1253.15 1059.66 1162.73 1059.66 1051.2" fill="#B6A8A2"/>
<path fill-rule="evenodd" clip-rule="evenodd" d="M835.172 1051.85H822.276C823.17 1038.46 824.352 1025.1 827.057 1011.86C837.403 961.225 869.753 886.86 940.704 878.642C943.321 878.336 952.949 878.284 964.613 878.85C970.14 876.295 976.332 874.749 982.856 874.394C1043.26 870.709 1110.72 911.03 1139.86 952.99C1163.35 986.821 1159.4 1031.25 1144.89 1067.19C1135.17 1091.25 1113.97 1125.56 1078.61 1125.89C1034.36 1126.31 1032.23 1081.07 1031.38 1054.62C1030.24 1019.46 1024.87 988.832 991.381 964.865C983.577 959.282 975.046 954.37 967.163 948.864C954.818 940.246 941.176 931.422 939.586 917.165C937.391 897.496 950.81 893.956 971.3 897.61C974.793 898.232 1009.98 911.295 1004.77 900.97C1003.18 897.816 997.368 895.317 990.036 893.444C971.064 891.737 948.438 889.757 941.931 890.94C871.732 903.682 844.4 984.135 837.142 1035.25C836.358 1040.77 835.725 1046.3 835.172 1051.85Z" fill="#6E9E9F"/>
</g>
<g opacity="0.5">
<path fill-rule="evenodd" clip-rule="evenodd" d="M300.972 543.943C308.069 533.824 321.238 508.125 331.227 504.509C337.66 502.18 335.784 526.271 335.864 530.864C336.173 548.636 334.443 566.296 332.307 583.918C328.457 615.701 315.87 644.005 298.607 671.055C289.723 684.974 279.303 699.062 264.871 707.747C258.228 711.746 250.235 712.416 243.675 715.862C236.034 719.873 240.195 716.63 236.752 724.592C231.97 735.646 230.441 749.907 228.228 761.702C218.07 815.847 193.476 1102.07 197.74 1157.15C198.118 1162.03 191.312 1163.2 190.972 1157.24C189.166 1125.64 204.794 906.815 212.679 835.254C220.564 763.693 228.543 700.472 236.544 675.714C246.25 645.677 263.78 609.556 278.372 581.545C285.15 568.532 292.538 555.968 300.972 543.943Z" fill="#567878"/>
<path fill-rule="evenodd" clip-rule="evenodd" d="M353.646 894.919C372.112 881.362 392.101 906.948 375.391 920.508C366.153 928.003 356.495 925.336 351.058 919.091C347.529 923.393 344.226 927.891 341.051 931.691C331.38 943.269 322.24 955.123 313.504 967.254C295.357 992.455 279.806 1019.08 263.545 1045.22C247.498 1071.01 231.58 1096.94 217.035 1123.39C204.714 1145.8 188.291 1172.17 184.073 1196.73C190.473 1144.63 214.76 1094.55 243.682 1048.62C272.368 1003.06 305.289 953.307 349.706 917.355C345.185 910.707 345.06 901.218 353.646 894.919Z" fill="#8DB4B5"/>
<path fill-rule="evenodd" clip-rule="evenodd" d="M3.23089 767.846C13.5647 769.867 30.45 793.244 38.9682 802.151C49.0914 812.735 58.2757 824.016 66.933 835.837C85.5703 861.279 102.238 888.329 116.411 916.538C139.518 962.525 158.029 1009.73 171.463 1059.81C179.687 1090.46 185.011 1122.23 188.167 1153.78C188.763 1159.73 195.001 1205.61 186.012 1206.84C177.927 1207.95 180.424 1172.01 180.034 1167.12C175.626 1111.96 162.418 1058.28 144.047 1006.29C140.046 994.962 136.328 981.089 129.929 970.897C125.32 963.555 129.895 966.115 121.797 963.337C114.843 960.95 106.919 961.533 99.7983 958.611C84.3283 952.267 71.9413 939.951 61.0832 927.563C39.9822 903.487 23.2607 877.441 14.5445 846.592C9.70936 829.487 5.2661 812.282 2.80037 794.648C2.16252 790.091 -3.42504 766.545 3.23089 767.846Z" fill="#567878"/>
<path fill-rule="evenodd" clip-rule="evenodd" d="M44.0109 378.905C82.9363 446.411 114.924 520.565 135.578 595.672C148.092 641.178 156.844 687.874 165.539 734.233C179.002 806.014 191.736 877.789 195.359 950.845C199.003 1024.32 206.21 1109.07 182.149 1179.85C194.167 1107.99 182.725 1031.51 180.699 959.213C179.731 924.698 176.925 890.521 173.245 856.209C169.674 822.923 163.839 789.797 158.405 756.773C155.759 740.69 152.979 724.631 150.149 708.581C149.304 703.793 148.947 689.583 145.91 686.312C142.852 683.019 127.254 681.677 122.357 679.261C112.495 674.395 103.219 667.482 95.0101 660.179C79.2726 646.178 65.5817 627.884 54.7758 609.851C29.7737 568.124 19.7779 517.202 20.2831 468.877C20.3802 459.495 35.4694 358.46 29.4093 357.069C29.7742 356.642 30.1193 356.201 30.4447 355.742C35.0327 363.423 39.5349 371.157 44.0109 378.905Z" fill="#83BBBC"/>
<path fill-rule="evenodd" clip-rule="evenodd" d="M464.144 622.372C464.744 621.506 468.653 615.481 466.685 615.866C470.693 615.082 461.172 622.511 471.159 617.953C466.417 622.431 469.154 628.248 469.217 634.275C469.32 644.06 467.683 653.765 465.84 663.34C462.928 678.475 458.59 693.191 452.293 707.269C438.568 737.947 415.264 767.48 387.597 786.66C373.939 796.13 360.553 799.354 344.975 803.714C335.136 806.468 334.356 811.558 329.133 821.106C318.26 840.992 307.58 860.807 297.991 881.365C286.54 905.912 275.425 930.487 264.94 955.467C229.617 1039.61 200.868 1126.78 185.77 1217C185.4 1163.84 197.699 1109.08 213.212 1058.41C224.513 1021.49 239.224 985.897 254.915 950.667C258.718 942.132 264.48 931.154 266.094 921.731C267.225 915.129 263.768 908.78 262.186 901.825C256.016 874.742 256.457 844.4 261.875 817.172C267.849 787.148 285.126 773.213 314.351 768.961C325.039 767.405 338.624 767.975 348.425 763.418C359.102 758.455 363.507 742.143 369.579 731.672C385.887 703.544 405.263 676.567 427.513 652.867C433.674 646.304 440.299 640.249 447.328 634.637C451.76 631.096 461.123 626.734 464.144 622.372Z" fill="#83BBBC"/>
<path fill-rule="evenodd" clip-rule="evenodd" d="M136.436 1159.58H240.153C244.816 1159.58 248.597 1163.36 248.597 1168.03C248.597 1168.44 248.567 1168.85 248.507 1169.26L240.49 1223.62C238.046 1240.19 223.827 1252.46 207.077 1252.46H169.512C152.762 1252.46 138.543 1240.19 136.099 1223.62L128.082 1169.26C127.402 1164.64 130.59 1160.35 135.204 1159.67C135.612 1159.61 136.023 1159.58 136.436 1159.58Z" fill="#B6A8A2"/>
</g>
<path fill-rule="evenodd" clip-rule="evenodd" d="M442.622 225.884C451.268 207.699 454.943 187.268 448.069 167.32C428.263 109.844 350.174 144.579 342.234 178.394C334.295 212.209 356.274 286.698 378.189 286.489C386.929 286.406 402.962 276.577 417.824 261.144L427.789 342.835L493.482 325.233L442.622 225.884Z" fill="#FFE9E1"/>
<path fill-rule="evenodd" clip-rule="evenodd" d="M418.782 227.857C431.118 241.311 445.54 250.067 456.795 247.051C478.175 241.323 485.717 208.666 477.482 177.933C477.193 176.853 476.884 175.786 476.557 174.733C503.331 184.193 528.957 210.113 558.882 202.095C599.594 191.186 593.759 104.738 536.879 119.979C498.196 130.344 480.679 141.082 466.516 153.816C460.838 145.565 453.853 139.221 446.388 135.483C444.499 134.239 441.856 133.272 438.599 132.592C436.587 132.103 434.562 131.807 432.539 131.719C421.676 130.735 406.664 132.01 390.514 135.738C387.498 136.434 384.555 137.19 381.703 137.996C377.617 122.931 362.108 114.001 347.02 118.044C331.903 122.095 322.932 137.633 326.982 152.751C330.9 167.37 345.561 176.242 360.195 173.146C369.131 173.481 380.236 172.51 392.207 170.147C392.216 174.747 392.902 179.791 394.379 185.303C395.683 190.17 397.604 195.188 399.997 200.164C401.735 196.449 404.616 193.557 408.077 192.63C417.76 190.035 426.635 196.195 428.901 204.652C431.777 215.386 427.661 224.812 418.782 227.857Z" fill="#FBC39B"/>
<path fill-rule="evenodd" clip-rule="evenodd" d="M577.275 575.742L473.472 933.439L424.649 1202H375.644L424.561 575.742H577.275Z" fill="#FFE9E1"/>
<path fill-rule="evenodd" clip-rule="evenodd" d="M623.925 575.742C616.682 761.564 619.539 862.916 621.16 879.798C622.781 896.681 631.984 1009.75 694.696 1207.67H643.727C560.676 1017.8 531.683 904.731 522.158 879.798C512.632 854.866 484.5 753.514 443.427 575.742H623.925Z" fill="#FFE9E1"/>
<path fill-rule="evenodd" clip-rule="evenodd" d="M579.504 575.742C552.503 698.826 505.803 895.3 439.404 1165.16H367.73C362.436 888.175 384.956 705.87 423.956 575.742H579.504Z" fill="#C0CFD0"/>
<path fill-rule="evenodd" clip-rule="evenodd" d="M624.287 575.742C617.194 761.564 635.577 944.633 692.523 1168.06H616.05C532.846 981.02 473.211 798.854 432.454 575.742H624.287Z" fill="#D1DCDD"/>
<path fill-rule="evenodd" clip-rule="evenodd" d="M701.961 1244.51L699.148 1199.17C682.683 1203.98 662.059 1202.1 637.278 1193.5C610.632 1212.38 577.088 1225.26 536.647 1232.17C533.561 1232.69 531.487 1235.62 532.014 1238.71C532.048 1238.91 532.092 1239.1 532.148 1239.3L536.036 1253.01H637.278H696.336L701.961 1244.51Z" fill="#5C5552"/>
<path fill-rule="evenodd" clip-rule="evenodd" d="M435.588 1244.51L432.775 1199.17C416.31 1203.98 395.686 1202.1 370.905 1193.5C344.259 1212.38 310.715 1225.26 270.274 1232.17C267.188 1232.69 265.114 1235.62 265.64 1238.71C265.674 1238.91 265.719 1239.1 265.775 1239.3L269.663 1253.01H370.905H429.963L435.588 1244.51Z" fill="#5C5552"/>
<path fill-rule="evenodd" clip-rule="evenodd" d="M374.516 416.438L268.296 380.465C248.816 364.177 230.325 352.12 212.825 344.293C207.696 343.141 199.129 343.407 209.387 355.896C219.645 368.385 229.873 381.983 226.646 386.957C223.419 391.931 212.442 387.713 208.945 395.648C206.614 400.938 224.888 405.424 263.768 409.104L345.515 461.138L374.516 416.438ZM230.7 487.95L184.03 472.079C174.054 450.414 164.902 440.243 156.574 441.564C149.672 439.721 165.842 466.468 153.312 466.111C140.781 465.753 107.399 449.008 103.099 454.361C96.7389 462.281 107.017 481.343 116.696 490.02C134.787 506.237 148.152 510.517 179.868 513.615C196.45 515.236 215.097 521.056 235.806 531.076L230.7 487.95Z" fill="#FFE9E1"/>
<path fill-rule="evenodd" clip-rule="evenodd" d="M419.606 396.302C385.615 401.926 339.107 402.737 285.429 380.606L273.925 426.228C313.051 453.403 364.661 472.299 405.398 463.931C437.501 457.336 447.109 415.404 419.606 396.302Z" fill="#CF9291"/>
<path fill-rule="evenodd" clip-rule="evenodd" d="M385.877 472.16C351.442 487.494 289.172 487.551 199.068 472.331C185.709 519.547 181.457 552.278 186.311 570.526C265.742 595.694 331.067 601.641 382.623 593.703C386.364 624.465 395.186 652.808 412.319 677.106C447.54 727.059 588.644 650.165 640.83 651.201C654.327 543.06 585.909 512.144 574.287 446.521C561.56 374.657 484.343 274.204 475.852 275.701L398.419 289.354C403.825 344.998 392.987 409.284 385.877 472.16Z" fill="#F6ACAB"/>
<g clip-path="url(#clip0_37_6)">
<path d="M118.351 308.977L83.1702 334.485C77.1016 338.885 75.7473 347.381 80.1473 353.45L134.35 428.208C138.75 434.277 147.246 435.631 153.315 431.231L188.496 405.724C194.564 401.324 195.919 392.828 191.519 386.759L137.316 312C132.916 305.932 124.419 304.577 118.351 308.977ZM167.717 414.08C164.067 416.726 158.984 415.916 156.338 412.266C153.692 408.616 154.502 403.534 158.152 400.887C161.802 398.241 166.884 399.051 169.531 402.701C172.177 406.351 171.367 411.434 167.717 414.08ZM174.752 382.142L135.174 410.838L90.5366 349.271L130.115 320.576L174.752 382.142Z" fill="#FBC39B"/>
</g>
<defs>
<clipPath id="clip0_37_6">
<rect width="130.364" height="130.364" fill="white" transform="translate(47 354) rotate(-35.9435)"/>
</clipPath>
</defs>
</svg>
