<svg width="99" height="76" viewBox="0 0 99 76" fill="none" xmlns="http://www.w3.org/2000/svg">
<path opacity="0.76" d="M36.8802 0V70.9045L52.9509 76V16.5351C52.9509 13.7469 54.1988 11.8841 56.2102 12.5306C58.8209 13.258 59.3299 15.8199 59.3299 18.6121V42.352C69.35 47.1727 77.2355 42.3439 77.2355 29.6153C77.2355 16.5351 72.6134 10.7244 59.0179 6.06933C53.6528 4.25904 43.7148 1.2769 36.8925 0H36.8802ZM55.9926 65.6272L81.8371 56.4343C84.7721 55.3918 85.2277 53.9088 82.8469 53.1289C80.4414 52.3531 76.1272 52.5672 73.1716 53.6259L55.9105 59.6872V50.0417L56.8957 49.6982C56.8957 49.6982 61.8257 48.0011 68.8533 47.2131C75.8152 46.4858 84.3903 47.3343 91.1716 49.8841C98.7575 52.3126 99.5456 55.8322 97.641 58.2567C95.7322 60.6812 90.9828 62.443 90.9828 62.443L55.9105 74.9979V65.7201L55.9926 65.6272ZM7.41927 64.6695C-0.38005 62.4673 -1.66899 57.9294 1.86944 55.2948C5.15747 52.9268 10.736 51.0438 10.736 51.0438L33.7851 42.9096V52.2561L17.2628 58.2042C14.3689 59.2992 13.8763 60.758 16.2818 61.5419C18.6872 62.3299 23.0015 62.148 25.8995 61.057L33.8549 58.2042V66.5849C33.3623 66.7061 32.804 66.7627 32.2539 66.8798C24.2945 68.2174 15.8507 67.6718 7.46853 64.9443L7.41927 64.6695Z" fill="#9294E9"/>
</svg>
