<svg width="30" height="27" viewBox="0 0 30 27" fill="none" xmlns="http://www.w3.org/2000/svg">
<path d="M0.863619 3.81635C0.093818 2.48302 1.05607 0.816351 2.59567 0.816351L27.3001 0.816351C28.8397 0.816349 29.802 2.48301 29.0322 3.81635L16.68 25.2111C15.9102 26.5444 13.9857 26.5444 13.2159 25.2111L0.863619 3.81635Z" fill="#D6DDEC"/>
<path d="M0.863619 3.81635C0.093818 2.48302 1.05607 0.816351 2.59567 0.816351L27.3001 0.816351C28.8397 0.816349 29.802 2.48301 29.0322 3.81635L16.68 25.2111C15.9102 26.5444 13.9857 26.5444 13.2159 25.2111L0.863619 3.81635Z" fill="#D6DDEC"/>
<path d="M0.863619 3.81635C0.093818 2.48302 1.05607 0.816351 2.59567 0.816351L27.3001 0.816351C28.8397 0.816349 29.802 2.48301 29.0322 3.81635L16.68 25.2111C15.9102 26.5444 13.9857 26.5444 13.2159 25.2111L0.863619 3.81635Z" fill="#D6DDEC"/>
<path d="M0.863619 3.81635C0.093818 2.48302 1.05607 0.816351 2.59567 0.816351L27.3001 0.816351C28.8397 0.816349 29.802 2.48301 29.0322 3.81635L16.68 25.2111C15.9102 26.5444 13.9857 26.5444 13.2159 25.2111L0.863619 3.81635Z" fill="#D6DDEC"/>
<path d="M0.863619 3.81635C0.093818 2.48302 1.05607 0.816351 2.59567 0.816351L27.3001 0.816351C28.8397 0.816349 29.802 2.48301 29.0322 3.81635L16.68 25.2111C15.9102 26.5444 13.9857 26.5444 13.2159 25.2111L0.863619 3.81635Z" fill="#D6DDEC"/>
</svg>
