<svg width="76" height="76" viewBox="0 0 76 76" fill="none" xmlns="http://www.w3.org/2000/svg">
<path d="M44.8907 76H56.525C67.2157 76 76 67.2157 76 56.525V19.475C76 8.7875 67.2157 0 56.525 0H44.65C44.4157 0 44.175 0.234333 44.175 0.475V75.525C44.1718 75.7657 44.4125 76 44.8907 76ZM59.375 34.2032C63.6532 34.2032 66.9718 37.7657 66.9718 41.7968C66.9718 46.0782 63.4093 49.3968 59.375 49.3968C55.1 49.3968 51.775 46.075 51.775 41.7968C51.5375 37.525 55.1 34.2032 59.375 34.2032ZM36.1 0H19.475C8.7875 0 0 8.7875 0 19.475V56.525C0 67.2157 8.7875 76 19.475 76H36.1C36.3343 76 36.575 75.7657 36.575 75.5282V0.475C36.5782 0.234333 36.3375 0 36.1 0ZM30.6407 69.8282H19.475C12.1093 69.8282 6.17183 63.8907 6.17183 56.525V19.475C6.17183 12.1093 12.1093 6.17183 19.475 6.17183H30.4L30.6407 69.8282ZM11.875 22.7968C11.875 26.8343 14.9625 29.9218 19 29.9218C23.0375 29.9218 26.125 26.8343 26.125 22.7968C26.125 18.7657 23.0375 15.6718 19 15.6718C14.9625 15.6718 11.875 18.7657 11.875 22.7968Z" fill="#E04D4D"/>
</svg>
