<svg width="37" height="37" viewBox="0 0 37 37" fill="none" xmlns="http://www.w3.org/2000/svg">
<path d="M34.1664 8.71968C32.9894 9.24029 31.7413 9.5822 30.4633 9.73409C31.8104 8.92847 32.8185 7.66057 33.3 6.16668C32.0358 6.91901 30.6499 7.44626 29.2053 7.73147C28.235 6.69328 26.9489 6.00474 25.5469 5.77291C24.1449 5.54108 22.7056 5.77893 21.4527 6.4495C20.1998 7.12007 19.2036 8.18577 18.6189 9.48094C18.0342 10.7761 17.8937 12.2282 18.2194 13.6114C15.6558 13.4829 13.1478 12.8167 10.8584 11.656C8.56896 10.4954 6.5492 8.86621 4.93025 6.8743C4.3572 7.85858 4.05606 8.97748 4.05767 10.1164C4.05767 12.3518 5.19542 14.3267 6.92517 15.483C5.90152 15.4507 4.9004 15.1743 4.00525 14.6767V14.7568C4.00556 16.2456 4.52074 17.6885 5.46344 18.8408C6.40613 19.9931 7.71833 20.7839 9.17754 21.0792C8.22728 21.3367 7.23089 21.3747 6.2638 21.1902C6.67522 22.4717 7.4771 23.5924 8.55717 24.3955C9.63723 25.1986 10.9414 25.6438 12.2871 25.6688C10.9497 26.7191 9.41832 27.4956 7.78061 27.9538C6.1429 28.4119 4.43095 28.5428 2.74263 28.3389C5.68983 30.2343 9.12065 31.2405 12.6247 31.2372C24.4847 31.2372 30.9705 21.4122 30.9705 12.8914C30.9705 12.6139 30.9628 12.3333 30.9505 12.0589C32.2129 11.1465 33.3025 10.0162 34.168 8.72122L34.1664 8.71968Z" fill="#040B11"/>
</svg>
