<svg width="1221" height="544" viewBox="0 0 1221 544" fill="none" xmlns="http://www.w3.org/2000/svg">
<rect width="1221" height="544" fill="#B2A4FF"/>
<g clip-path="url(#clip0_52_120)">
<path fill-rule="evenodd" clip-rule="evenodd" d="M797.799 62.1421C802.715 59.7045 809.268 62.5315 806.534 68.9754C803.606 75.8758 792.78 75.961 786.665 75.8242C787.277 75.7922 789.248 69.4644 789.923 68.5082C791.912 65.6875 794.777 63.6433 797.799 62.1421ZM741.161 185.859C741.06 185.958 739.921 186.919 741.161 185.859ZM802.535 93.3527C805.411 95.5516 805.549 99.4341 803.199 102.062C800.401 105.191 795.291 105.077 791.477 104.772C789.752 104.634 780.54 103.896 782.724 102.389C782.556 102.452 782.205 102.606 781.83 102.815C781.628 103.554 781.415 104.289 781.194 105.021C781.249 105.053 781.295 105.087 781.353 105.119C781.29 105.091 781.246 105.061 781.191 105.034C778.975 112.353 775.822 119.322 771.693 125.842C773.238 125.233 774.838 124.773 776.461 124.568C781.267 123.96 791.376 127.695 786.001 134.093C780.846 140.227 772.822 133.646 766.972 132.739C761.298 140.658 755.042 148.247 748.486 155.583C748.887 155.709 749.24 155.971 749.442 156.379C752.072 155.045 754.813 153.136 757.247 152.619C760.76 151.874 767.962 151.423 770.617 154.567C773.883 158.433 770.382 161.573 766.525 162.315C760.931 163.39 753.608 160.657 748.225 158.81C747.609 158.919 746.937 158.739 746.536 158.247C746.417 158.208 746.298 158.169 746.182 158.132C739.543 165.432 732.649 172.491 725.798 179.395C725.871 179.391 725.944 179.387 726.02 179.383C727.807 178.211 729.724 177.249 731.802 176.745C736.609 175.574 742.265 175.568 746.165 179.046C750.051 182.509 751.428 188.566 747.408 192.455C739.361 200.239 727.506 182.49 723.448 181.749C716.485 188.692 709.123 195.179 701.645 201.534C702.494 201.276 703.365 201.086 704.265 201C711.598 200.298 728.809 209.288 719.81 218.133C711.968 225.84 702.891 211.005 696.572 205.817C689.525 211.741 682.44 217.624 675.554 223.737C679.31 222.74 682.939 222.593 686.965 223.809C691.131 225.07 697.854 228.216 695.22 233.84C692.541 239.56 684.469 236.957 680.265 235.141C677.971 234.151 673.374 230.808 669.337 229.4C658.349 239.774 648.831 251.2 641.625 264.661C637.127 273.065 633.713 282.044 631.31 291.273C629.777 297.163 626.755 307.056 627.36 314.723C624.476 299.377 629.69 280.946 635.307 267.229C640.471 254.616 648.2 243.543 657.253 233.576C654.981 226.743 635.86 216.888 647.291 210.54C653.361 207.184 659.578 212.753 660.905 218.652C661.817 222.705 660.428 227.798 658.954 231.733C661.802 228.694 664.763 225.754 667.813 222.911C672.029 218.982 676.346 215.166 680.705 211.399C673.523 204.652 666.726 185.364 676.355 182.21C690.575 177.565 683.728 203.874 682.736 208.806C682.454 208.822 682.235 208.737 682.073 208.555C682.153 209.006 682.246 209.489 682.359 209.976C690.7 202.803 699.165 195.772 707.352 188.428C706.614 187.883 705.442 185.8 704.52 184.691C702.44 182.192 700.451 179.581 698.996 176.657C696.699 172.037 694.484 164.666 700.573 161.949C707.195 158.988 710.342 167.323 710.389 172.296C710.42 175.735 709.483 179.002 708.996 182.373C708.843 183.424 709.43 188.163 707.998 186.125C708.066 186.876 708.075 187.421 708.042 187.807C709.512 186.482 710.97 185.142 712.419 183.793C712.352 183.623 712.302 183.437 712.291 183.222C712.213 181.739 713.705 181.168 714.751 181.602C716.663 179.785 718.557 177.945 720.417 176.069C724.358 172.093 728.357 168.004 732.328 163.828C731.466 163.087 731.809 162.062 731.003 161.277C730.199 160.493 728.614 160.059 727.669 159.331C725.289 157.498 723.316 154.828 721.89 152.2C719.534 147.858 716.49 138.75 723.371 136.681C730.464 134.544 734.065 143.312 734.521 148.794C734.61 149.856 733.815 159.424 733.206 162.899C740.554 155.138 747.781 147.085 754.328 138.892C752.343 138.874 746.715 134.806 745.577 133.696C742.8 130.989 738.387 125.008 743.254 121.842C747.582 119.035 752.917 123.101 754.768 127.053C755.072 127.704 756.144 133.761 756.228 136.479C758.938 133.004 761.523 129.51 763.928 126.004C765.532 123.673 767.031 121.28 768.433 118.837C768.096 118.646 767.778 118.312 767.478 117.897C760.26 116.672 751.058 105.41 759.536 101.491C763.573 99.6283 767.95 103.474 769.928 106.623C770.333 107.267 770.989 110.506 771.523 113.061C775.557 104.967 778.641 96.3972 780.987 87.611C780.359 87.4549 779.827 86.975 779.757 86.1493C776.252 84.1515 773.485 82.4879 771.038 78.6461C769.519 76.2599 766.782 70.808 771.247 69.4835C777.059 67.7602 780.709 76.6364 781.184 81.0084C781.24 81.5159 781.238 82.9919 781.219 84.3445C781.42 84.3169 781.624 84.3201 781.824 84.3554C783.159 78.9149 784.224 73.4043 785.072 67.8845C781.9 66.8636 781.351 50.2056 783.463 47.8337C788.184 42.5227 791.514 50.1946 791.262 54.2494C790.964 59.0305 788.798 63.3796 786.218 67.2393C785.941 67.6481 786.02 67.6283 785.949 67.0589C785.909 67.3403 785.815 67.548 785.675 67.6985C785.808 70.2151 786.068 72.7917 785.943 75.0187C785.586 81.3961 784.843 87.8107 783.764 94.106C783.502 95.6371 783.202 97.1557 782.865 98.6612C785.414 96.4892 788.852 94.5594 790.197 93.956C793.687 92.3913 799.067 90.7019 802.535 93.3527ZM626.95 314.745C627.112 316.968 627.514 319.005 628.263 320.684C627.701 318.772 627.27 316.785 626.95 314.745Z" fill="#F0EDFF"/>
<g opacity="0.7">
<path fill-rule="evenodd" clip-rule="evenodd" d="M702.178 212.77C688.526 212.062 671.641 220.031 670.185 234.871C669.127 245.653 669.455 256.405 667.817 267.172C666.508 275.776 663.739 284.036 659.962 291.874C656.33 299.411 648.797 305.827 646.838 313.879C645.589 319.01 646.288 326.227 648.01 331.245C650.104 337.347 648.991 336.865 644.818 341.985C636.641 352.018 629.277 362.307 624.07 374.29C616.57 391.55 611.652 411.725 614.436 430.618C614.79 433.017 615.21 441.627 618.514 442.229C622.204 442.902 620.478 437.978 620.281 436.387C619.026 426.238 617.911 417.367 619.425 407.059C625.268 367.288 653.799 341.085 672.377 307.331C673.398 305.59 675.554 301.445 677.053 298.711C679.42 294.393 681.799 286.179 685.003 282.977C691.037 276.947 685.489 289.071 684.314 291.385C682.827 294.313 681.192 297.425 679.668 299.99C672.698 311.882 664.918 324.862 657.72 337.121C688.853 344.214 710.779 306.785 719.134 282.178C726.018 261.905 734.254 214.505 702.178 212.77Z" fill="#E5E0FF"/>
<path fill-rule="evenodd" clip-rule="evenodd" d="M519.195 175.121C542.017 176.932 556.669 191.992 563.489 213.056C567.165 224.407 567.587 236.068 569.63 247.734C572.703 265.284 579.314 278.585 592.236 291.089C596.238 294.961 599.188 298.937 601.284 303.191C605.446 307.438 609.069 312.244 611.731 318.12C615.131 325.624 616.093 334.628 612.168 342.109C611.112 344.121 608.479 348.158 605.75 349.992C615.967 371.752 621.585 395.584 620.952 419.386C620.569 433.753 619.868 448.127 619.049 462.477C618.829 466.33 617.574 472.693 615.69 466.231C613.965 460.32 616.128 451.041 616.328 444.867C617.302 414.786 618.134 387.435 605.752 359.331C604.453 356.385 603.076 353.463 601.643 350.565C601.558 350.516 601.48 350.457 601.401 350.4C601.347 350.442 601.297 350.487 601.242 350.529C601.151 350.365 601.025 350.171 600.879 349.954C600.468 349.529 600.109 348.993 599.767 348.395C598.669 346.873 597.426 345.084 597.419 344.105C597.419 344.098 597.423 344.086 597.423 344.078C589.758 331.565 580.978 319.742 572.01 308.149C572.077 308.234 562.282 294.897 563.796 302.272C564.526 305.827 571.731 312.595 574.641 316.36C581.078 324.735 588.637 335.348 594.918 345.61C595.763 346.096 596.957 348.48 597.821 350.257C598.298 351.157 598.743 352.064 599.18 352.855C576.923 360.208 559.61 345.396 547.804 328.168C547.79 328.147 547.777 328.126 547.764 328.106C544.171 323.346 540.491 318.619 535.893 314.856C528.223 308.576 520.008 307.468 510.964 304.378C486.3 295.951 475.814 263.987 472.484 240.27C468.726 213.513 487.106 172.483 519.195 175.121Z" fill="#655AA3"/>
<path fill-rule="evenodd" clip-rule="evenodd" d="M564.277 100.19C587.701 124.569 599.018 158.383 607.978 190.172C617.986 225.676 624.597 261.728 624.851 298.642C625.017 322.895 625.677 347.299 624.261 371.523C623.759 380.126 622.901 388.745 621.538 397.255C621.425 397.955 618.374 416.958 615.455 412.53C613.795 410.012 618.583 392.817 618.944 389.953C620.979 373.822 621.452 357.573 621.353 341.326C621.19 314.575 621.979 287.962 619.267 261.31C618.863 257.33 618.543 253.151 617.598 249.258C616.594 245.119 617.873 246.926 614.604 245.287C611.427 243.694 607.502 243.922 604.206 241.924C591.134 233.997 584.447 213.635 579.242 200.275C573.289 184.998 569.671 168.706 566.781 152.628C564.659 140.816 563.142 129.075 562.284 117.11C562.013 113.339 561.997 109.396 561.256 105.688C561.056 104.688 560.055 102.919 560.091 102.033C560.168 100.158 561.299 99.0559 561.392 97.4807C562.373 98.3631 563.335 99.267 564.277 100.19Z" fill="#655AA3"/>
<path fill-rule="evenodd" clip-rule="evenodd" d="M692 425C692 465.317 659.317 498 619 498C578.683 498 546 465.317 546 425" fill="#655AA3"/>
<path fill-rule="evenodd" clip-rule="evenodd" d="M613.143 425.232H617C616.732 420.393 616.379 415.562 615.57 410.776C612.475 392.473 602.8 365.591 581.58 362.62C580.797 362.51 577.917 362.491 574.429 362.696C572.776 361.772 570.924 361.213 568.972 361.085C550.905 359.753 530.729 374.329 522.014 389.497C514.988 401.726 516.172 417.785 520.511 430.778C523.417 439.476 529.759 451.878 540.335 451.999C553.567 452.15 554.205 435.796 554.461 426.236C554.801 413.525 556.407 402.453 566.423 393.789C568.757 391.771 571.308 389.995 573.666 388.005C577.358 384.89 581.438 381.7 581.914 376.546C582.57 369.436 578.557 368.156 572.429 369.477C571.384 369.702 560.861 374.424 562.419 370.692C562.895 369.552 564.632 368.648 566.825 367.971C572.499 367.354 579.267 366.638 581.213 367.066C602.208 371.672 610.383 400.755 612.554 419.233C612.788 421.227 612.977 423.228 613.143 425.232Z" fill="#E5E0FF"/>
</g>
</g>
<g clip-path="url(#clip1_52_120)">
<path fill-rule="evenodd" clip-rule="evenodd" d="M892.738 204.49C897.346 199.081 900.464 192.453 899.943 185.025C898.442 163.625 868.651 168.333 862.857 179.134C857.062 189.935 857.75 217.333 865.24 219.263C868.226 220.033 874.589 218.147 881.065 214.244L877 243H901L892.738 204.49Z" fill="#AC7A5D"/>
<path fill-rule="evenodd" clip-rule="evenodd" d="M894.582 209.308C897.594 195.906 906.175 186.771 904.865 180.782C903.991 176.789 901.662 174.305 897.879 173.332C895.922 165.416 889.61 162.048 878.944 163.23C862.945 165.004 853.181 171.648 857.398 186.268C861.274 186.268 865.954 184.866 872.424 187.268C874.478 188.03 875.946 190.393 876.83 194.358H879.754C882.592 189.653 885.391 187.924 888.149 189.171C890.908 190.418 891.535 193.447 890.03 198.259L891.471 209.308H894.582Z" fill="#FFB4B4"/>
<path fill-rule="evenodd" clip-rule="evenodd" d="M1079.39 368H866.605C850.255 368 837 375.51 837 384.774V481.226C837 490.49 850.255 498 866.605 498H1079.39C1095.75 498 1109 490.49 1109 481.226V384.774C1109 375.51 1095.75 368 1079.39 368ZM1049.79 397.355C1053.88 397.355 1057.19 399.232 1057.19 401.548V464.452C1057.19 466.768 1053.88 468.645 1049.79 468.645H896.211C892.123 468.645 888.81 466.768 888.81 464.452V401.548C888.81 399.232 892.123 397.355 896.211 397.355H1049.79Z" fill="#C5CFD6"/>
<path fill-rule="evenodd" clip-rule="evenodd" d="M737.841 487C757.557 462.924 770.897 445.075 777.862 433.454C789.787 413.555 799.547 395.848 802.627 389.084C809.972 372.955 785.718 365.403 780.229 372.926C771.921 384.312 754.178 420.143 727 480.417L737.841 487Z" fill="#B28B67"/>
<path fill-rule="evenodd" clip-rule="evenodd" d="M778.242 480L814.935 387.637C822.783 370.8 784.884 359.732 779.117 367.568C766.023 385.357 734.901 455.534 731 460.834L778.242 480Z" fill="#C48989"/>
<path fill-rule="evenodd" clip-rule="evenodd" d="M875.967 461.477C868.819 451.051 842.821 415.974 828.661 401.461C824.592 397.291 820.621 393.288 816.866 389.557C805.704 378.47 783.476 397.106 794.618 407.205C822.365 432.355 862.849 466.307 866.231 469.334C870.972 473.577 880.459 468.029 875.967 461.477Z" fill="#AC7A5D"/>
<path fill-rule="evenodd" clip-rule="evenodd" d="M874.295 456.767C876.758 458.794 878.359 460.45 879.101 461.734C880.002 463.296 881.058 465.725 882.267 469.021C880.456 470.067 864.174 479.467 833.422 497.222C829.73 493.759 829.155 491.07 831.696 489.157C834.238 487.243 836.335 485.629 837.988 484.315L854.848 461.087C855.172 460.64 855.798 460.54 856.244 460.865C856.252 460.87 856.26 460.876 856.267 460.882L859.77 463.579C862.984 463.299 865.382 462.702 866.965 461.788C868.251 461.045 869.727 459.501 871.393 457.154C872.033 456.253 873.281 456.041 874.182 456.681C874.221 456.708 874.259 456.737 874.295 456.767Z" fill="#E4E4E4"/>
<path fill-rule="evenodd" clip-rule="evenodd" d="M746.322 483.402C747.441 486.388 748 488.623 748 490.106C748 491.909 747.7 494.54 747.099 498C745.007 498 726.206 498 690.697 498C689.231 493.155 690.077 490.539 693.235 490.152C696.393 489.766 699.016 489.417 701.105 489.106L727.32 477.419C727.824 477.194 728.416 477.421 728.641 477.925C728.644 477.934 728.648 477.942 728.652 477.951L730.337 482.039C733.26 483.403 735.636 484.085 737.463 484.085C738.948 484.085 740.999 483.485 743.616 482.286C744.62 481.825 745.807 482.266 746.267 483.27C746.287 483.313 746.305 483.357 746.322 483.402Z" fill="#E4E4E4"/>
<path fill-rule="evenodd" clip-rule="evenodd" d="M828.138 392.25C858.635 387.282 879.062 383.884 889.419 382.058C918.943 376.852 927.552 360.965 922.462 326.302H868.066C860.867 328.381 830.79 341.237 777.832 364.872C768.304 369.602 770.079 383.548 771.82 388.142C771.891 388.329 787.954 415.853 820.008 470.713L864.506 442.366L828.054 395.59C827.092 393.652 827.12 392.538 828.138 392.25Z" fill="#FFB4B4"/>
<path fill-rule="evenodd" clip-rule="evenodd" d="M824.219 313.211L792.321 336.635C783.669 338.97 776.441 341.874 770.636 345.349C769.265 346.598 767.608 349.128 773.295 348.691C778.981 348.254 784.982 348.049 785.767 349.989C786.551 351.929 783.11 354.248 784.696 356.865C785.754 358.61 790.749 354.235 799.683 343.741L831.27 330.642L824.219 313.211ZM946.692 314.02L925.795 314.102C938.698 355.756 945.664 377.857 946.692 380.406C949.006 386.14 944.109 394.874 942.015 399.567C948.835 402.619 948.109 391.317 956.712 395.319C964.565 398.973 970.538 405.592 979.611 399.994C980.726 399.306 981.949 396.715 978.995 394.69C971.638 389.645 961.035 380.815 959.602 377.908C957.648 373.945 953.345 352.649 946.692 314.02Z" fill="#AC7A5D"/>
<path fill-rule="evenodd" clip-rule="evenodd" d="M887.305 226.332L878.658 224.849C846.575 252.564 833.397 305.809 794.07 334.015L803.536 345.748C871.76 337.3 888.67 272.355 887.305 226.332Z" fill="#FFDEB4"/>
<path fill-rule="evenodd" clip-rule="evenodd" d="M925 335C890.328 335 864.824 335 848.489 335C844.992 335 845.651 329.952 846.157 327.404C851.989 298.004 874.759 266.312 874.759 224.461L896.828 221C915.083 250.358 921.395 286.505 925 335Z" fill="#DDE3E9"/>
<path fill-rule="evenodd" clip-rule="evenodd" d="M924.385 249.858C927.59 248.937 930.129 246.788 932 243.411C940.066 228.856 937.153 220.842 928.533 218.208C919.912 215.574 912.225 221 898.49 221C897.743 221 897.059 221.047 896.437 221.141L889.528 221.535C869.706 288.715 864.239 333.537 873.128 356H933.348C936.916 364.32 940.33 371.32 943.591 377H960C961.544 327.067 949.673 284.686 924.385 249.858Z" fill="#FDF7C3"/>
<path fill-rule="evenodd" clip-rule="evenodd" d="M920.235 321.498C918.341 337.344 915.263 348.845 911 356H933.348C929.186 346.295 924.815 334.794 920.235 321.498Z" fill="black" fill-opacity="0.1"/>
</g>
<g clip-path="url(#clip2_52_120)">
<path d="M1053 359H1019C1017.9 359 1017 359.895 1017 361V366C1017 367.105 1017.9 368 1019 368H1053C1054.1 368 1055 367.105 1055 366V361C1055 359.895 1054.1 359 1053 359Z" fill="#AFB9C5"/>
<path fill-rule="evenodd" clip-rule="evenodd" d="M1027 330C1031.29 316.085 1033.7 301.419 1034.22 286H1037H1038.78C1039.3 301.419 1041.71 316.085 1046 330H1052.5C1061.06 330 1068 336.94 1068 345.5C1068 354.06 1061.06 361 1052.5 361H1019.5C1010.94 361 1004 354.06 1004 345.5C1004 336.94 1010.94 330 1019.5 330H1027Z" fill="#DDE3E9"/>
<path fill-rule="evenodd" clip-rule="evenodd" d="M1000.62 216.679C1012.08 215.56 1023.54 215 1035 215C1046.46 215 1057.92 215.56 1069.38 216.679L1074 296.133C1061 297.378 1048 298 1035 298C1022 298 1009 297.378 996 296.133L1000.62 216.679Z" fill="#C5CFD6"/>
</g>
<defs>
<clipPath id="clip0_52_120">
<rect width="336" height="452" fill="white" transform="matrix(-1 0 0 1 808 46)"/>
</clipPath>
<clipPath id="clip1_52_120">
<rect width="419" height="335" fill="white" transform="translate(690 163)"/>
</clipPath>
<clipPath id="clip2_52_120">
<rect width="78" height="153" fill="white" transform="translate(996 215)"/>
</clipPath>
</defs>
</svg>
