<svg width="37" height="37" viewBox="0 0 37 37" fill="none" xmlns="http://www.w3.org/2000/svg">
<path d="M18.5 13.875C17.2734 13.875 16.097 14.3623 15.2296 15.2296C14.3623 16.097 13.875 17.2734 13.875 18.5C13.875 19.7266 14.3623 20.903 15.2296 21.7704C16.097 22.6377 17.2734 23.125 18.5 23.125C19.7266 23.125 20.903 22.6377 21.7704 21.7704C22.6377 20.903 23.125 19.7266 23.125 18.5C23.125 17.2734 22.6377 16.097 21.7704 15.2296C20.903 14.3623 19.7266 13.875 18.5 13.875ZM18.5 10.7917C20.5444 10.7917 22.505 11.6038 23.9506 13.0494C25.3962 14.495 26.2083 16.4556 26.2083 18.5C26.2083 20.5444 25.3962 22.505 23.9506 23.9506C22.505 25.3962 20.5444 26.2084 18.5 26.2084C16.4556 26.2084 14.495 25.3962 13.0494 23.9506C11.6038 22.505 10.7917 20.5444 10.7917 18.5C10.7917 16.4556 11.6038 14.495 13.0494 13.0494C14.495 11.6038 16.4556 10.7917 18.5 10.7917ZM28.5208 10.4063C28.5208 10.9174 28.3178 11.4075 27.9564 11.7689C27.595 12.1303 27.1048 12.3333 26.5938 12.3333C26.0827 12.3333 25.5925 12.1303 25.2311 11.7689C24.8697 11.4075 24.6667 10.9174 24.6667 10.4063C24.6667 9.89517 24.8697 9.40501 25.2311 9.04361C25.5925 8.68221 26.0827 8.47918 26.5938 8.47918C27.1048 8.47918 27.595 8.68221 27.9564 9.04361C28.3178 9.40501 28.5208 9.89517 28.5208 10.4063ZM18.5 6.16668C14.6859 6.16668 14.0631 6.17747 12.2886 6.25609C11.08 6.31314 10.269 6.47501 9.51671 6.76793C8.84762 7.02693 8.36508 7.3368 7.8517 7.85172C7.36917 8.31792 6.99817 8.88708 6.76637 9.51672C6.47345 10.2721 6.31158 11.0815 6.25608 12.2886C6.17591 13.9906 6.16666 14.5857 6.16666 18.5C6.16666 22.3141 6.17745 22.9369 6.25608 24.7114C6.31312 25.9185 6.475 26.731 6.76637 27.4818C7.02845 28.1524 7.33679 28.6349 7.84862 29.1468C8.36816 29.6648 8.85071 29.9746 9.51362 30.2306C10.2752 30.525 11.0861 30.6884 12.2886 30.7439C13.9906 30.8241 14.5857 30.8334 18.5 30.8334C22.3141 30.8334 22.9369 30.8226 24.7114 30.7439C25.917 30.6869 26.7294 30.525 27.4818 30.2336C28.1493 29.9731 28.6349 29.6632 29.1468 29.1514C29.6663 28.6319 29.9762 28.1493 30.2321 27.4864C30.525 26.7264 30.6884 25.9139 30.7439 24.7114C30.8241 23.0094 30.8333 22.4143 30.8333 18.5C30.8333 14.6859 30.8225 14.0631 30.7439 12.2886C30.6869 11.0831 30.525 10.2691 30.2321 9.51672C29.9997 8.88772 29.6294 8.31878 29.1483 7.85172C28.6823 7.36894 28.1131 6.99789 27.4833 6.76639C26.7279 6.47347 25.917 6.31159 24.7114 6.25609C23.0094 6.17593 22.4143 6.16668 18.5 6.16668ZM18.5 3.08334C22.6887 3.08334 23.2113 3.09876 24.8548 3.17584C26.4966 3.25293 27.6143 3.51039 28.5979 3.89272C29.6154 4.2843 30.4726 4.81464 31.3298 5.67026C32.1137 6.44093 32.7203 7.37317 33.1073 8.4021C33.4881 9.38414 33.7471 10.5034 33.8242 12.1453C33.8966 13.7887 33.9167 14.3113 33.9167 18.5C33.9167 22.6887 33.9013 23.2114 33.8242 24.8548C33.7471 26.4966 33.4881 27.6144 33.1073 28.5979C32.7214 29.6274 32.1147 30.5599 31.3298 31.3298C30.5589 32.1134 29.6267 32.72 28.5979 33.1073C27.6159 33.4881 26.4966 33.7471 24.8548 33.8242C23.2113 33.8966 22.6887 33.9167 18.5 33.9167C14.3113 33.9167 13.7887 33.9013 12.1452 33.8242C10.5034 33.7471 9.38566 33.4881 8.40208 33.1073C7.37275 32.7211 6.44035 32.1144 5.67025 31.3298C4.88616 30.5592 4.27956 29.627 3.8927 28.5979C3.51037 27.6159 3.25291 26.4966 3.17583 24.8548C3.10337 23.2114 3.08333 22.6887 3.08333 18.5C3.08333 14.3113 3.09874 13.7887 3.17583 12.1453C3.25291 10.5018 3.51037 9.38568 3.8927 8.4021C4.27848 7.37254 4.88523 6.44005 5.67025 5.67026C6.44057 4.88591 7.37291 4.27926 8.40208 3.89272C9.38566 3.51039 10.5018 3.25293 12.1452 3.17584C13.7887 3.10339 14.3113 3.08334 18.5 3.08334Z" fill="#040B11"/>
</svg>
