<svg width="76" height="76" viewBox="0 0 76 76" fill="none" xmlns="http://www.w3.org/2000/svg">
<path d="M37.9334 0C17.9436 0 1.55134 15.39 0 34.9505L20.4054 43.3675C22.1344 42.1927 24.2219 41.4992 26.4712 41.4992C26.6711 41.4992 26.8678 41.5118 27.0676 41.5182L36.1441 28.4018V28.215C36.1441 20.3142 42.5779 13.889 50.4964 13.889C58.4086 13.889 64.8487 20.3205 64.8487 28.2245C64.8487 36.1285 58.4086 42.5537 50.4964 42.5537H50.1633L37.2323 51.7718C37.2323 51.9365 37.2449 52.1043 37.2449 52.2753C37.2449 58.2128 32.4386 63.0293 26.4902 63.0293C21.3032 63.0293 16.922 59.3148 15.9227 54.3938L1.31341 48.355C5.83737 64.3055 20.5069 76 37.9334 76C58.9574 76 76 58.9855 76 38C76 17.0145 58.9542 0 37.9334 0ZM23.8507 57.665L19.1777 55.7333C20.0088 57.4528 21.4428 58.8968 23.3463 59.6917C27.461 61.3985 32.207 59.451 33.917 55.3375C34.7514 53.3425 34.7545 51.1607 33.9329 49.1657C33.1112 47.1707 31.5535 45.6158 29.5644 44.7862C27.5847 43.9628 25.4719 43.9977 23.6064 44.6912L28.4381 46.6862C31.471 47.9528 32.9082 51.4362 31.6392 54.4603C30.3797 57.4908 26.8868 58.9253 23.8507 57.665ZM60.0646 28.2055C60.0646 22.9425 55.7722 18.658 50.4996 18.658C45.2174 18.658 40.9345 22.9425 40.9345 28.2055C40.9345 33.478 45.2174 37.753 50.4996 37.753C55.7754 37.753 60.0646 33.478 60.0646 28.2055ZM43.3361 28.1897C43.3361 24.225 46.5498 21.014 50.5218 21.014C54.4842 21.014 57.7106 24.225 57.7106 28.1897C57.7106 32.1512 54.4842 35.3622 50.5218 35.3622C46.5467 35.3622 43.3361 32.1512 43.3361 28.1897Z" fill="#91CDFF"/>
</svg>
