<svg width="76" height="76" viewBox="0 0 76 76" fill="none" xmlns="http://www.w3.org/2000/svg">
<path d="M12.9897 66.6045C19.6682 72.4565 28.4272 76 38 76C47.5823 76 56.3318 72.4565 63.023 66.6045C68.9668 60.5498 49.3557 39.026 38 30.4507C26.657 39.026 7.03317 60.5498 12.9897 66.6045ZM48.3297 20.9855C56.2463 30.362 72.029 53.6433 67.5703 61.8735C72.8397 55.3533 76 47.0598 76 38.0127C76 27.436 71.6775 17.8663 64.695 10.982C64.695 10.982 64.6095 10.9123 64.4353 10.849C64.2358 10.7793 63.954 10.7065 63.5455 10.7065C61.6708 10.7065 57.2597 12.0808 48.3297 20.9855ZM11.571 10.849C11.3905 10.9123 11.3113 10.9788 11.2987 10.982C4.3225 17.8663 0 27.436 0 38.0127C0 47.0503 3.16033 55.3438 8.4265 61.8672C3.99 53.618 19.76 30.3557 27.6798 20.9855C18.7498 12.0777 14.3292 10.7097 12.4608 10.7097C12.046 10.7097 11.7547 10.7762 11.571 10.8553V10.849ZM38 11.2448C38 11.2448 28.6742 5.78867 21.3908 5.529C18.5313 5.4245 16.7865 6.46317 16.5743 6.6025C23.3668 2.04567 30.5868 0 37.9493 0H38C45.391 0 52.5825 2.04567 59.4257 6.6025C59.2103 6.45683 57.4782 5.4245 54.6123 5.529C47.329 5.78867 38 11.2258 38 11.2258V11.2448Z" fill="#6BEC70"/>
</svg>
