<svg width="76" height="76" viewBox="0 0 76 76" fill="none" xmlns="http://www.w3.org/2000/svg">
<path d="M26.125 44.8305V40.375H30.875V44.8305C30.8751 45.2196 30.9229 45.6073 31.0175 45.9847L32.9175 53.5753L28.5 56.5203L24.0825 53.5753L25.9825 45.9847C26.0771 45.6073 26.125 45.2196 26.125 44.8305Z" fill="#DC93FF"/>
<path d="M44.1418 0H19C16.4804 0 14.0641 1.00089 12.2825 2.78249C10.5009 4.56408 9.5 6.98044 9.5 9.5V66.5C9.5 69.0196 10.5009 71.4359 12.2825 73.2175C14.0641 74.9991 16.4804 76 19 76H57C59.5196 76 61.9359 74.9991 63.7175 73.2175C65.4991 71.4359 66.5 69.0196 66.5 66.5V22.3582C66.4997 21.0986 65.9991 19.8906 65.1082 19L47.5 1.39175C46.6094 0.500891 45.4014 0.000269028 44.1418 0ZM45.125 16.625V7.125L59.375 21.375H49.875C48.6152 21.375 47.407 20.8746 46.5162 19.9838C45.6254 19.093 45.125 17.8848 45.125 16.625ZM26.125 14.25V9.5H21.375V4.75H28.5V9.5H33.25V14.25H28.5V19H33.25V23.75H28.5V28.5H33.25V33.25H26.125V28.5H21.375V23.75H26.125V19H21.375V14.25H26.125ZM26.125 35.625H30.875C32.1348 35.625 33.343 36.1254 34.2338 37.0162C35.1246 37.907 35.625 39.1152 35.625 40.375V44.8305L37.525 52.4257C37.7617 53.3761 37.6989 54.3763 37.3452 55.2895C36.9915 56.2028 36.3641 56.9844 35.549 57.5273L31.1315 60.4722C30.3514 60.992 29.435 61.2694 28.4976 61.2694C27.5602 61.2694 26.6438 60.992 25.8638 60.4722L21.4462 57.5273C20.632 56.9837 20.0056 56.2019 19.6527 55.2887C19.2999 54.3755 19.2378 53.3756 19.475 52.4257L21.375 44.8305V40.375C21.375 39.1152 21.8754 37.907 22.7662 37.0162C23.657 36.1254 24.8652 35.625 26.125 35.625Z" fill="#DC93FF"/>
</svg>
